<?xml version="1.0" standalone="no"?>
<!DOCTYPE svg PUBLIC "-//W3C//DTD SVG 20010904//EN"
 "http://www.w3.org/TR/2001/REC-SVG-20010904/DTD/svg10.dtd">
<svg version="1.0" xmlns="http://www.w3.org/2000/svg"
 width="113.000000pt" height="113.000000pt" viewBox="0 0 113.000000 113.000000"
 preserveAspectRatio="xMidYMid meet">
<metadata>
Created by potrace 1.14, written by Peter Selinger 2001-2017
</metadata>
<g transform="translate(0.000000,113.000000) scale(0.100000,-0.100000)"
fill="#000000" stroke="none">
<path d="M356 843 c-2 -10 -7 -36 -11 -58 l-6 -40 60 3 c75 5 101 -16 101 -79
0 -35 -6 -47 -36 -76 -35 -32 -36 -35 -24 -66 7 -18 20 -37 28 -44 13 -11 13
-15 -1 -36 -41 -64 -157 -21 -157 58 0 33 -17 12 -26 -32 l-9 -48 -57 -5 c-31
-3 -59 -8 -62 -10 -3 -3 36 -47 87 -98 l93 -92 66 7 c64 6 67 7 74 35 l6 30
32 -31 c19 -19 48 -34 69 -38 31 -5 40 -1 66 25 29 28 31 29 47 11 56 -62 198
-42 244 34 25 40 25 64 0 105 l-20 32 24 10 c36 13 50 45 37 78 -7 15 -52 67
-101 116 l-90 90 0 -37 c0 -39 -19 -57 -61 -57 -22 0 -22 -1 6 -30 58 -61 28
-142 -64 -173 -66 -22 -115 -14 -153 23 -45 46 -15 95 55 88 28 -3 32 -6 29
-29 -3 -30 17 -52 37 -40 21 13 4 48 -34 71 -57 35 -76 66 -69 112 6 35 3 43
-27 74 -18 19 -40 34 -48 34 -8 0 -11 3 -7 7 7 7 -72 93 -85 93 -4 0 -10 -8
-13 -17z"/>
<path d="M273 843 c-24 -3 -34 -10 -38 -26 -22 -103 -74 -381 -72 -383 1 -2
25 0 52 4 l49 7 22 113 c27 137 57 181 94 137 18 -22 -3 -88 -35 -113 -53 -42
-7 -152 63 -152 24 0 58 35 42 45 -12 7 -40 71 -40 91 0 7 13 20 30 29 47 24
57 94 18 128 -25 21 -57 22 -103 3 -18 -8 -35 -12 -38 -10 -2 3 2 30 9 62 19
81 25 75 -53 65z"/>
<path d="M638 728 c-43 -11 -88 -59 -88 -92 0 -27 14 -45 63 -81 48 -36 61
-59 47 -85 -22 -41 -91 -10 -74 33 8 22 -26 30 -52 12 -30 -19 -30 -36 -3 -61
30 -27 128 -26 166 2 71 53 68 104 -7 155 -55 38 -67 58 -50 89 8 15 19 20 38
18 23 -3 27 -8 30 -40 4 -43 18 -48 52 -20 41 33 1 84 -63 81 -12 -1 -39 -6
-59 -11z"/>
<path d="M659 694 c-13 -16 -4 -44 18 -51 12 -4 24 33 16 53 -7 18 -17 18 -34
-2z"/>
<path d="M324 655 c-7 -19 -14 -45 -14 -57 1 -22 2 -21 30 10 32 35 41 82 14
82 -8 0 -22 -16 -30 -35z"/>
</g>
</svg>
